<svg width="40" height="40" viewBox="0 0 40 40" fill="none" xmlns="http://www.w3.org/2000/svg">
<g id="add_user">
<path id="Vector" d="M30.2779 23.3333V18.0554H25V15.2779H30.2779V10H33.0554V15.2779H38.3333V18.0554H33.0554V23.3333H30.2779ZM15 19.9721C13.1667 19.9721 11.6435 19.3657 10.4304 18.1529C9.21764 16.9399 8.61125 15.4167 8.61125 13.5833C8.61125 11.75 9.21764 10.2268 10.4304 9.01375C11.6435 7.80097 13.1667 7.19458 15 7.19458C16.8333 7.19458 18.3565 7.80097 19.5696 9.01375C20.7824 10.2268 21.3888 11.75 21.3888 13.5833C21.3888 15.4167 20.7824 16.9399 19.5696 18.1529C18.3565 19.3657 16.8333 19.9721 15 19.9721ZM1.66667 33.3333V29.1667C1.66667 28.2036 1.90972 27.3262 2.39583 26.5346C2.88195 25.7429 3.56486 25.1481 4.44458 24.75C6.40736 23.8519 8.22528 23.2061 9.89833 22.8125C11.5711 22.4189 13.2701 22.2221 14.9954 22.2221C16.7207 22.2221 18.4167 22.4189 20.0833 22.8125C21.75 23.2061 23.5649 23.8519 25.5279 24.75C26.4074 25.1667 27.0949 25.7662 27.5904 26.5487C28.0857 27.331 28.3333 28.2036 28.3333 29.1667V33.3333H1.66667ZM4.44458 30.5554H25.5554V29.1667C25.5554 28.7686 25.4467 28.3936 25.2292 28.0417C25.0117 27.6897 24.7224 27.4258 24.3613 27.25C22.5463 26.3889 20.9304 25.7986 19.5138 25.4792C18.0971 25.1597 16.5925 25 15 25C13.4075 25 11.8982 25.1597 10.4721 25.4792C9.04625 25.7986 7.42597 26.3889 5.61125 27.25C5.25014 27.4258 4.96542 27.6897 4.75708 28.0417C4.54875 28.3936 4.44458 28.7686 4.44458 29.1667V30.5554ZM15 17.1946C16.0278 17.1946 16.8865 16.8496 17.5763 16.1596C18.2663 15.4699 18.6113 14.6111 18.6113 13.5833C18.6113 12.5556 18.2663 11.6968 17.5763 11.0071C16.8865 10.3171 16.0278 9.97208 15 9.97208C13.9722 9.97208 13.1135 10.3171 12.4238 11.0071C11.7338 11.6968 11.3888 12.5556 11.3888 13.5833C11.3888 14.6111 11.7338 15.4699 12.4238 16.1596C13.1135 16.8496 13.9722 17.1946 15 17.1946Z" fill="#ffffff"/>
</g>
</svg>
