<svg width="56" height="56" viewBox="0 0 56 56" fill="none" xmlns="http://www.w3.org/2000/svg">
<g id="adicionar_bttn">
<rect width="56" height="56" rx="12" fill="#57EAFB"/>
<rect x="0.5" y="0.5" width="55" height="55" rx="11.5" stroke="black" stroke-opacity="0.4"/>
<path id="Vector" d="M40.3798 31.6619V25.5043H34.2222V22.2639H40.3798V16.1063H43.6202V22.2639H49.7778V25.5043H43.6202V31.6619H40.3798ZM22.5556 27.7404C20.4167 27.7404 18.6396 27.033 17.2244 25.6181C15.8095 24.2028 15.102 22.4258 15.102 20.2869C15.102 18.148 15.8095 16.3709 17.2244 14.9557C18.6396 13.5408 20.4167 12.8333 22.5556 12.8333C24.6944 12.8333 26.4715 13.5408 27.8867 14.9557C29.3016 16.3709 30.0091 18.148 30.0091 20.2869C30.0091 22.4258 29.3016 24.2028 27.8867 25.6181C26.4715 27.033 24.6944 27.7404 22.5556 27.7404ZM7 43.3286V38.4674C7 37.3439 7.28356 36.3203 7.85069 35.3967C8.41782 34.4731 9.21456 33.7791 10.2409 33.3147C12.5308 32.2669 14.6517 31.5135 16.6036 31.0542C18.5552 30.595 20.5374 30.3654 22.5502 30.3654C24.563 30.3654 26.5417 30.595 28.4861 31.0542C30.4306 31.5135 32.5479 32.2669 34.8381 33.3147C35.8641 33.8008 36.6662 34.5003 37.2444 35.4132C37.8222 36.3258 38.1111 37.3439 38.1111 38.4674V43.3286H7ZM10.2409 40.0877H34.8702V38.4674C34.8702 38.003 34.7433 37.5655 34.4896 37.1549C34.2358 36.7443 33.8983 36.4365 33.477 36.2313C31.3595 35.2267 29.4744 34.538 27.8216 34.1654C26.1688 33.7927 24.4135 33.6063 22.5556 33.6063C20.6976 33.6063 18.9368 33.7927 17.273 34.1654C15.6095 34.538 13.7192 35.2267 11.602 36.2313C11.1807 36.4365 10.8485 36.7443 10.6055 37.1549C10.3624 37.5655 10.2409 38.003 10.2409 38.4674V40.0877ZM22.5556 24.5C23.7546 24.5 24.7565 24.0975 25.5612 23.2925C26.3662 22.4878 26.7687 21.486 26.7687 20.2869C26.7687 19.0878 26.3662 18.0859 25.5612 17.2813C24.7565 16.4763 23.7546 16.0738 22.5556 16.0738C21.3565 16.0738 20.3546 16.4763 19.5499 17.2813C18.7449 18.0859 18.3424 19.0878 18.3424 20.2869C18.3424 21.486 18.7449 22.4878 19.5499 23.2925C20.3546 24.0975 21.3565 24.5 22.5556 24.5Z" fill="#050505"/>
</g>
</svg>
