<svg width="43" height="34" viewBox="0 0 43 34" fill="none" xmlns="http://www.w3.org/2000/svg">
<path id="Vector" d="M0 31.962V26.8671C0 25.6216 0.348904 24.5317 1.04671 23.5977C1.74452 22.6636 2.65299 21.9532 3.77212 21.4665C6.23632 20.4363 8.64394 19.6635 10.995 19.1483C13.3464 18.633 15.7165 18.3754 18.1053 18.3754C19.5265 18.3754 20.9286 18.4688 22.3113 18.6556C23.6941 18.8424 25.0896 19.117 26.4976 19.4794L23.4237 22.2307C22.5184 22.0836 21.6333 21.9704 20.7684 21.8909C19.9035 21.8117 19.0158 21.7722 18.1053 21.7722C15.9677 21.7722 13.8743 21.9789 11.825 22.3922C9.77571 22.8052 7.61949 23.5157 5.35633 24.5234C4.89087 24.7384 4.51047 25.0611 4.21513 25.4915C3.91979 25.9218 3.77212 26.3804 3.77212 26.8671V28.5652H18.8595V31.962H0ZM22.6316 34V27.7332L35.1355 16.5244C35.475 16.2187 35.8522 15.9979 36.2671 15.862C36.682 15.7262 37.0969 15.6582 37.5118 15.6582C37.9645 15.6582 38.3982 15.7347 38.8132 15.8875C39.2281 16.0404 39.6053 16.2696 39.9447 16.5753L42.0382 18.4605C42.3652 18.7662 42.6072 19.1058 42.7641 19.4794C42.9214 19.8531 43 20.2267 43 20.6003C43 20.974 42.9183 21.3561 42.755 21.7467C42.5913 22.1373 42.3409 22.4855 42.0036 22.7912L29.5908 34H22.6316ZM26.0263 30.943H28.1763L35.0224 24.7272L34.0039 23.7592L32.9289 22.8421L26.0263 29.007V30.943ZM34.0039 23.7592L32.9289 22.8421L35.0224 24.7272L34.0039 23.7592ZM18.1053 15.6241C15.6912 15.6241 13.6417 14.8656 11.9568 13.3487C10.2723 11.8314 9.43001 9.98589 9.43001 7.81206C9.43001 5.63822 10.2723 3.79267 11.9568 2.2754C13.6417 0.758467 15.6912 0 18.1053 0C20.5193 0 22.5688 0.758467 24.2537 2.2754C25.9382 3.79267 26.7805 5.63822 26.7805 7.81206C26.7805 9.98589 25.9382 11.8314 24.2537 13.3487C22.5688 14.8656 20.5193 15.6241 18.1053 15.6241ZM18.1053 12.2278C19.4756 12.2278 20.6355 11.8004 21.5849 10.9454C22.5343 10.0905 23.009 9.04605 23.009 7.81206C23.009 6.57807 22.5343 5.5336 21.5849 4.67868C20.6355 3.82375 19.4756 3.39628 18.1053 3.39628C16.7349 3.39628 15.5751 3.82375 14.6257 4.67868C13.6763 5.5336 13.2016 6.57807 13.2016 7.81206C13.2016 9.04605 13.6763 10.0905 14.6257 10.9454C15.5751 11.8004 16.7349 12.2278 18.1053 12.2278Z" fill="#0D0D0D"/>
</svg>
