<svg width="56" height="56" viewBox="0 0 56 56" fill="none" xmlns="http://www.w3.org/2000/svg">
<g id="atualizar_bttn">
<rect width="56" height="56" rx="12" fill="#57EAFB"/>
<rect x="0.5" y="0.5" width="55" height="55" rx="11.5" stroke="black" stroke-opacity="0.4"/>
<path id="Vector" d="M10 42.962V37.8671C10 36.6216 10.3489 35.5317 11.0467 34.5977C11.7445 33.6636 12.653 32.9532 13.7721 32.4665C16.2363 31.4363 18.6439 30.6635 20.995 30.1483C23.3464 29.633 25.7165 29.3754 28.1053 29.3754C29.5265 29.3754 30.9286 29.4688 32.3113 29.6556C33.6941 29.8424 35.0896 30.117 36.4976 30.4794L33.4237 33.2307C32.5184 33.0836 31.6333 32.9704 30.7684 32.8909C29.9035 32.8117 29.0158 32.7722 28.1053 32.7722C25.9677 32.7722 23.8743 32.9789 21.825 33.3922C19.7757 33.8052 17.6195 34.5157 15.3563 35.5234C14.8909 35.7384 14.5105 36.0611 14.2151 36.4915C13.9198 36.9218 13.7721 37.3804 13.7721 37.8671V39.5652H28.8595V42.962H10ZM32.6316 45V38.7332L45.1355 27.5244C45.475 27.2187 45.8522 26.9979 46.2671 26.862C46.682 26.7262 47.0969 26.6582 47.5118 26.6582C47.9645 26.6582 48.3982 26.7347 48.8132 26.8875C49.2281 27.0404 49.6053 27.2696 49.9447 27.5753L52.0382 29.4605C52.3652 29.7662 52.6072 30.1058 52.7641 30.4794C52.9214 30.8531 53 31.2267 53 31.6003C53 31.974 52.9183 32.3561 52.755 32.7467C52.5913 33.1373 52.3409 33.4855 52.0036 33.7912L39.5908 45H32.6316ZM36.0263 41.943H38.1763L45.0224 35.7272L44.0039 34.7592L42.9289 33.8421L36.0263 40.007V41.943ZM44.0039 34.7592L42.9289 33.8421L45.0224 35.7272L44.0039 34.7592ZM28.1053 26.6241C25.6912 26.6241 23.6417 25.8656 21.9568 24.3487C20.2723 22.8314 19.43 20.9859 19.43 18.8121C19.43 16.6382 20.2723 14.7927 21.9568 13.2754C23.6417 11.7585 25.6912 11 28.1053 11C30.5193 11 32.5688 11.7585 34.2537 13.2754C35.9382 14.7927 36.7805 16.6382 36.7805 18.8121C36.7805 20.9859 35.9382 22.8314 34.2537 24.3487C32.5688 25.8656 30.5193 26.6241 28.1053 26.6241ZM28.1053 23.2278C29.4756 23.2278 30.6355 22.8004 31.5849 21.9454C32.5343 21.0905 33.009 20.046 33.009 18.8121C33.009 17.5781 32.5343 16.5336 31.5849 15.6787C30.6355 14.8237 29.4756 14.3963 28.1053 14.3963C26.7349 14.3963 25.5751 14.8237 24.6257 15.6787C23.6763 16.5336 23.2016 17.5781 23.2016 18.8121C23.2016 20.046 23.6763 21.0905 24.6257 21.9454C25.5751 22.8004 26.7349 23.2278 28.1053 23.2278Z" fill="#0D0D0D"/>
</g>
</svg>
