<svg width="56" height="56" viewBox="0 0 56 56" fill="none" xmlns="http://www.w3.org/2000/svg">
<g id="config_button" opacity="0.5">
<rect width="56" height="56" rx="12" fill="#919191" fill-opacity="0.5"/>
<rect x="0.5" y="0.5" width="55" height="55" rx="11.5" stroke="black" stroke-opacity="0.4"/>
<path id="Vector" d="M23.4267 46.6667L22.5554 40.7554C22.0265 40.5585 21.4847 40.2993 20.93 39.9779C20.3753 39.6562 19.8749 39.3192 19.4287 38.9667L13.9067 41.4246L9.30206 33.3667L14.2646 29.6954C14.2126 29.4362 14.1815 29.1538 14.1713 28.8479C14.1607 28.5418 14.1554 28.2592 14.1554 28C14.1554 27.7408 14.1607 27.4582 14.1713 27.1521C14.1815 26.8462 14.2126 26.5638 14.2646 26.3046L9.30206 22.6333L13.9067 14.5754L19.4287 17.0333C19.8749 16.6808 20.3779 16.3438 20.9379 16.0221C21.4979 15.7007 22.0371 15.4518 22.5554 15.2754L23.4267 9.33333H32.5733L33.4446 15.2446C33.9735 15.4415 34.5204 15.6956 35.0854 16.0067C35.6507 16.3178 36.146 16.66 36.5713 17.0333L42.0933 14.5754L46.6979 22.6333L41.7354 26.2421C41.7874 26.5221 41.8185 26.8151 41.8287 27.1213C41.8393 27.4271 41.8446 27.72 41.8446 28C41.8446 28.28 41.8393 28.5678 41.8287 28.8633C41.8185 29.1589 41.7822 29.4467 41.72 29.7267L46.6821 33.3667L42.0779 41.4246L36.5713 38.9667C36.1251 39.3192 35.6273 39.6614 35.0779 39.9933C34.5282 40.3253 33.9838 40.5793 33.4446 40.7554L32.5733 46.6667H23.4267ZM26.0087 43.5554H29.9754L30.6287 38.4221C31.6349 38.1732 32.5813 37.7921 33.4679 37.2787C34.3546 36.7654 35.1608 36.1458 35.8867 35.42L40.7246 37.4887L42.5754 34.1913L38.3133 31.0333C38.448 30.5356 38.5518 30.0351 38.6246 29.5321C38.6971 29.0293 38.7333 28.5186 38.7333 28C38.7333 27.4814 38.7022 26.9707 38.64 26.4679C38.5778 25.9649 38.4689 25.4644 38.3133 24.9667L42.5754 21.8087L40.7246 18.5113L35.8867 20.5954C35.1814 19.8176 34.3907 19.1669 33.5146 18.6433C32.6382 18.1197 31.6762 17.7646 30.6287 17.5779L29.9913 12.4446H26.0246L25.3713 17.5779C24.3446 17.806 23.3879 18.1767 22.5013 18.69C21.6146 19.2033 20.8186 19.8333 20.1133 20.58L15.2754 18.5113L13.4246 21.8087L17.6867 24.9513C17.552 25.4593 17.4482 25.9622 17.3754 26.46C17.3029 26.9578 17.2667 27.4711 17.2667 28C17.2667 28.5186 17.3029 29.0268 17.3754 29.5246C17.4482 30.0224 17.552 30.5253 17.6867 31.0333L13.4246 34.1913L15.2754 37.4887L20.1133 35.4046C20.8392 36.1407 21.6454 36.7654 22.5321 37.2787C23.4187 37.7921 24.3651 38.1732 25.3713 38.4221L26.0087 43.5554ZM28.0313 34.2221C29.7526 34.2221 31.22 33.6154 32.4333 32.4021C33.6467 31.1887 34.2533 29.7214 34.2533 28C34.2533 26.2786 33.6467 24.8113 32.4333 23.5979C31.22 22.3846 29.7526 21.7779 28.0313 21.7779C26.2993 21.7779 24.8293 22.3846 23.6213 23.5979C22.4129 24.8113 21.8087 26.2786 21.8087 28C21.8087 29.7214 22.4129 31.1887 23.6213 32.4021C24.8293 33.6154 26.2993 34.2221 28.0313 34.2221Z" fill="black"/>
</g>
</svg>
