<svg width="240" height="240" viewBox="0 0 240 240" fill="none" xmlns="http://www.w3.org/2000/svg">
<rect width="240" height="240" rx="35" fill="url(#paint0_linear_334_23)"/>
<rect x="0.5" y="0.5" width="239" height="239" rx="34.5" stroke="black" stroke-opacity="0.4"/>
<path d="M70.6193 88.4545H78.1932V129.866C78.1932 134.142 77.1854 137.96 75.1697 141.319C73.1745 144.658 70.3546 147.295 66.7102 149.229C63.0658 151.143 58.7902 152.099 53.8835 152.099C48.9768 152.099 44.7012 151.143 41.0568 149.229C37.4124 147.295 34.5824 144.658 32.5668 141.319C30.5715 137.96 29.5739 134.142 29.5739 129.866V88.4545H37.1477V129.256C37.1477 132.31 37.8196 135.028 39.1634 137.41C40.5071 139.772 42.4209 141.634 44.9048 142.999C47.4091 144.342 50.402 145.014 53.8835 145.014C57.3651 145.014 60.358 144.342 62.8622 142.999C65.3665 141.634 67.2803 139.772 68.6037 137.41C69.9474 135.028 70.6193 132.31 70.6193 129.256V88.4545ZM93.318 88.4545H102.358L123.613 140.372H124.346L145.602 88.4545H154.642V151H147.557V103.48H146.946L127.4 151H120.559L101.014 103.48H100.403V151H93.318V88.4545ZM204.032 104.091C203.666 100.996 202.18 98.5938 199.574 96.8835C196.967 95.1733 193.771 94.3182 189.984 94.3182C187.215 94.3182 184.792 94.7661 182.716 95.6619C180.659 96.5578 179.051 97.7895 177.89 99.3572C176.75 100.925 176.18 102.706 176.18 104.702C176.18 106.371 176.577 107.807 177.371 109.008C178.185 110.189 179.224 111.176 180.486 111.97C181.748 112.744 183.072 113.385 184.456 113.894C185.841 114.383 187.113 114.78 188.274 115.085L194.626 116.795C196.255 117.223 198.067 117.813 200.062 118.567C202.078 119.32 204.002 120.348 205.834 121.651C207.687 122.934 209.214 124.583 210.415 126.599C211.616 128.614 212.217 131.088 212.217 134.02C212.217 137.4 211.331 140.454 209.56 143.182C207.809 145.91 205.244 148.078 201.864 149.687C198.505 151.295 194.422 152.099 189.618 152.099C185.138 152.099 181.26 151.377 177.982 149.931C174.724 148.486 172.159 146.47 170.286 143.884C168.433 141.299 167.385 138.295 167.14 134.875H174.958C175.162 137.237 175.956 139.191 177.341 140.739C178.745 142.266 180.517 143.406 182.654 144.159C184.813 144.892 187.134 145.259 189.618 145.259C192.509 145.259 195.105 144.79 197.405 143.854C199.706 142.897 201.528 141.573 202.872 139.884C204.216 138.173 204.887 136.178 204.887 133.898C204.887 131.821 204.307 130.131 203.147 128.828C201.986 127.525 200.459 126.466 198.566 125.652C196.672 124.838 194.626 124.125 192.427 123.514L184.731 121.315C179.845 119.911 175.976 117.905 173.126 115.299C170.276 112.693 168.85 109.283 168.85 105.068C168.85 101.566 169.797 98.5123 171.691 95.9062C173.605 93.2798 176.17 91.2438 179.387 89.7983C182.624 88.3324 186.238 87.5994 190.228 87.5994C194.26 87.5994 197.843 88.3222 200.978 89.7678C204.114 91.1929 206.598 93.1475 208.43 95.6314C210.283 98.1153 211.26 100.935 211.362 104.091H204.032Z" fill="black"/>
<defs>
<linearGradient id="paint0_linear_334_23" x1="120" y1="0" x2="120" y2="240" gradientUnits="userSpaceOnUse">
<stop offset="0.77" stop-color="#57EAFB"/>
<stop offset="1" stop-color="#338695"/>
</linearGradient>
</defs>
</svg>
