<svg width="56" height="56" viewBox="0 0 56 56" fill="none" xmlns="http://www.w3.org/2000/svg">
<g id="refresh_button">
<rect width="56" height="56" rx="12" fill="#57EAFB" fill-opacity="0.79"/>
<rect x="0.5" y="0.5" width="55" height="55" rx="11.5" stroke="black" stroke-opacity="0.4"/>
<path id="Icon" d="M49.3889 12.4444V24.1111M49.3889 24.1111H37.7222M49.3889 24.1111L40.3666 15.6333C38.2769 13.5425 35.6915 12.0151 32.8517 11.1937C30.012 10.3723 27.0105 10.2837 24.1272 10.9361C21.2439 11.5884 18.5729 12.9606 16.3634 14.9244C14.1538 16.8883 12.4778 19.3799 11.4916 22.1667M6.61108 43.5555V31.8889M6.61108 31.8889H18.2778M6.61108 31.8889L15.6333 40.3667C17.7231 42.4575 20.3085 43.9849 23.1482 44.8063C25.9879 45.6277 28.9895 45.7163 31.8727 45.0639C34.756 44.4116 37.427 43.0394 39.6366 41.0756C41.8461 39.1117 43.5221 36.6201 44.5083 33.8333" stroke="#1E1E1E" stroke-width="2" stroke-linecap="round" stroke-linejoin="round"/>
</g>
</svg>
