<svg width="40" height="40" viewBox="0 0 40 40" fill="none" xmlns="http://www.w3.org/2000/svg">
<g id="user_icon">
<path id="Vector" d="M1.61127 33.3333V29.1667C1.61127 28.2036 1.85891 27.3262 2.35418 26.5346C2.84946 25.7429 3.52766 25.1481 4.38877 24.75C6.31488 23.8703 8.11585 23.229 9.79168 22.8262C11.4675 22.4235 13.1852 22.2221 14.9446 22.2221C16.7038 22.2221 18.4167 22.4235 20.0834 22.8262C21.75 23.229 23.5463 23.8703 25.4721 24.75C26.3332 25.1481 27.0161 25.7429 27.5209 26.5346C28.0256 27.3262 28.2779 28.2036 28.2779 29.1667V33.3333H1.61127ZM31.0554 33.3333V29.0554C31.0554 27.4815 30.6457 26.1321 29.8263 25.0071C29.0068 23.8821 27.9074 22.9537 26.5279 22.2221C28.2779 22.426 29.926 22.7385 31.4721 23.1596C33.0185 23.581 34.324 24.074 35.3888 24.6387C36.3332 25.176 37.0693 25.8172 37.5971 26.5625C38.1249 27.3078 38.3888 28.1387 38.3888 29.0554V33.3333H31.0554ZM14.9446 19.9721C13.1113 19.9721 11.5881 19.3657 10.375 18.1529C9.16196 16.9399 8.55543 15.4167 8.55543 13.5833C8.55543 11.75 9.16196 10.2268 10.375 9.01375C11.5881 7.80097 13.1113 7.19458 14.9446 7.19458C16.7779 7.19458 18.301 7.80097 19.5138 9.01375C20.7268 10.2268 21.3334 11.75 21.3334 13.5833C21.3334 15.4167 20.7268 16.9399 19.5138 18.1529C18.301 19.3657 16.7779 19.9721 14.9446 19.9721ZM30.5 13.5833C30.5 15.4167 29.8935 16.9399 28.6804 18.1529C27.4677 19.3657 25.9446 19.9721 24.1113 19.9721C23.8057 19.9721 23.4492 19.9467 23.0417 19.8958C22.6342 19.845 22.2777 19.7686 21.9721 19.6667C22.6665 18.9075 23.1967 18.0093 23.5625 16.9721C23.9284 15.9351 24.1113 14.8056 24.1113 13.5833C24.1113 12.3611 23.9284 11.25 23.5625 10.25C23.1967 9.25 22.6665 8.33333 21.9721 7.5C22.3054 7.39805 22.662 7.32166 23.0417 7.27083C23.4214 7.22 23.7779 7.19458 24.1113 7.19458C25.9446 7.19458 27.4677 7.80097 28.6804 9.01375C29.8935 10.2268 30.5 11.75 30.5 13.5833ZM4.38877 30.5554H25.5V29.1667C25.5 28.7686 25.3865 28.389 25.1596 28.0279C24.9329 27.6668 24.6482 27.4075 24.3054 27.25C22.4721 26.4075 20.8471 25.8218 19.4304 25.4929C18.0138 25.1643 16.5185 25 14.9446 25C13.3704 25 11.8704 25.1643 10.4446 25.4929C9.01849 25.8218 7.38877 26.4075 5.55543 27.25C5.21293 27.4075 4.93293 27.6668 4.71543 28.0279C4.49766 28.389 4.38877 28.7686 4.38877 29.1667V30.5554ZM14.9446 17.1946C15.9724 17.1946 16.8311 16.8496 17.5209 16.1596C18.2106 15.4699 18.5554 14.6111 18.5554 13.5833C18.5554 12.5556 18.2106 11.6968 17.5209 11.0071C16.8311 10.3171 15.9724 9.97208 14.9446 9.97208C13.9168 9.97208 13.0579 10.3171 12.3679 11.0071C11.6782 11.6968 11.3334 12.5556 11.3334 13.5833C11.3334 14.6111 11.6782 15.4699 12.3679 16.1596C13.0579 16.8496 13.9168 17.1946 14.9446 17.1946Z" fill="#ffffff"/>
</g>
</svg>
